<?xml version="1.0" encoding="utf-8"?>
<!-- Generator: Adobe Illustrator 24.0.2, SVG Export Plug-In . SVG Version: 6.00 Build 0)  -->
<svg version="1.1" id="Layer_1" xmlns:svg="http://www.w3.org/2000/svg"
	 xmlns="http://www.w3.org/2000/svg" xmlns:xlink="http://www.w3.org/1999/xlink" x="0px" y="0px" viewBox="0 0 324.1 117.4"
	 style="enable-background:new 0 0 324.1 117.4;" xml:space="preserve">
<style type="text/css">
	.st0{fill:#727272;}
</style>
<g>
	<path class="st0" d="M5.4,13.3v13.4c0,6.7-0.7,9.3-4.7,10.5L0,37.3v6l0.7,0.2c4,1.2,4.7,3.8,4.7,10.6v13.3c0,6.2,4.2,10.6,7.1,10.6
		h6.2v-7.3h-3.8c-1.4,0-1.6-0.6-1.6-4.4V52.9c0-7.2-3.1-11-4.8-12.6c1.7-1.6,4.8-5.4,4.8-12.5V14.3c0-3.8,0.2-4.4,1.6-4.4h3.8V2.6
		h-6.2C9.6,2.6,5.4,7.1,5.4,13.3z"/>
	<path class="st0" d="M68.8,41v19.9h7.7V40c0-3.8,0-15.6-12.4-15.6c-3.5,0-6.3,1.1-8.7,3.5v-2.6h-7.7v35.5h7.7V44
		c0-7.6,1.2-12.3,7.4-12.3C67.9,31.7,68.8,34.7,68.8,41z"/>
	<path class="st0" d="M119.6,43.2c0-10.5-8.2-18.8-18.6-18.8s-18.6,8.2-18.6,18.8c0,10.4,8.2,18.6,18.6,18.6
		C111.4,61.8,119.6,53.6,119.6,43.2z M111.9,43.1c0,6.5-4.7,11.4-10.9,11.4c-6.2,0-10.9-4.9-10.9-11.4s4.7-11.4,10.9-11.4
		C107.2,31.7,111.9,36.6,111.9,43.1z"/>
	<rect x="147.3" class="st0" width="7.7" height="60.9"/>
	<path class="st0" d="M197.9,43.2c0-10.5-8.2-18.8-18.6-18.8c-10.4,0-18.6,8.2-18.6,18.8c0,10.4,8.2,18.6,18.6,18.6
		C189.7,61.8,197.9,53.6,197.9,43.2z M190.2,43.1c0,6.5-4.7,11.4-10.9,11.4s-10.9-4.9-10.9-11.4s4.7-11.4,10.9-11.4
		C185.5,31.7,190.2,36.6,190.2,43.1z"/>
	<path class="st0" d="M218.6,79.6c5.6,0,10.6-2.3,13.8-6.3c3.6-4.7,3.6-9.7,3.6-15V25.4h-7.7v3.3c-2.8-2.7-6.5-4.2-10.6-4.2
		c-9.8,0-17.2,8.1-17.2,18.8c0,10.6,7.3,18.6,17,18.6c4.1,0,7.9-1.5,10.8-4.2v1.6c0,9.2-2.9,13.1-9.8,13.1c-5.8,0-9.7-3.7-9.7-9.2
		v-1h-7.7v1C201.4,73,208.4,79.6,218.6,79.6z M228.7,42.8c0,5.8-3.2,11.7-10.2,11.7c-6.9,0-10-6.1-10-11.8c0-5.4,3.5-11.1,9.9-11.1
		C225.5,31.7,228.7,37.3,228.7,42.8z"/>
	<path class="st0" d="M260.9,24.4c-10.4,0-18.6,8.2-18.6,18.8c0,5,1.9,9.7,5.4,13.2s8.2,5.4,13.2,5.4l0,0c10.4,0,18.6-8.2,18.6-18.6
		C279.5,32.7,271.3,24.4,260.9,24.4z M271.8,43.1c0,6.5-4.7,11.4-10.9,11.4c-6.2,0-10.9-4.9-10.9-11.4s4.7-11.4,10.9-11.4
		C267.1,31.7,271.8,36.6,271.8,43.1z"/>
	<path class="st0" d="M323.4,37.1c-4-1.2-4.7-3.8-4.7-10.5V13.3c0-6.2-4.2-10.6-7.1-10.6h-6.2V10h3.8c1.4,0,1.6,0.6,1.6,4.4v13.5
		c0,7.1,3.1,10.9,4.8,12.5c-1.7,1.6-4.8,5.4-4.8,12.6v13.4c0,3.8-0.2,4.4-1.6,4.4h-3.8V78h6.2c2.8,0,7.1-4.5,7.1-10.6V54.1
		c0-6.7,0.7-9.3,4.7-10.6l0.7-0.2v-6L323.4,37.1z"/>
	<path class="st0" d="M78.2,101.9l-0.1,0.2c-1.4,1.9-3,2.7-5.1,2.7c-3,0-5.3-2.5-5.3-5.7s2.4-5.7,5.4-5.7c1.9,0,3.4,0.8,4.8,2.6
		l0.1,0.2h0.8v-4.5l-0.2-0.1c-1.6-1.1-3.5-1.8-5.5-1.8c-5.3,0-9.5,4.1-9.5,9.3c0,5.3,4,9.3,9.4,9.3c2,0,3.8-0.6,5.6-1.8l0.2-0.1
		v-4.1l-0.1-0.5H78.2z"/>
	<path class="st0" d="M90.3,89.8c-5.2,0-9.3,4.1-9.3,9.4c0,5.2,4.1,9.3,9.3,9.3c5.2,0,9.3-4.1,9.3-9.3
		C99.6,93.9,95.5,89.8,90.3,89.8z M95.7,99.1c0,3.3-2.4,5.7-5.5,5.7s-5.5-2.5-5.5-5.7c0-3.3,2.4-5.7,5.5-5.7
		C93.4,93.4,95.7,95.9,95.7,99.1z"/>
	<path class="st0" d="M119.7,89.8c-2.1,0-3.9,0.9-5,2.3c-1-1.5-2.8-2.3-4.7-2.3c-1.4,0-2.6,0.5-3.6,1.5v-1h-3.8V108h3.8v-9.2
		c0-3.8,1-5.4,3.2-5.4c1.7,0,2.5,1.4,2.5,4.6v10h3.8v-9.4c0-3.7,0.9-5.2,3.1-5.2s2.6,1.6,2.6,4.4V108h3.8V97.3
		C125.5,91.1,122.3,89.8,119.7,89.8z"/>
	<rect x="130.5" y="90.2" class="st0" width="3.8" height="17.8"/>
	<path class="st0" d="M132.4,81.9c-1.4,0-2.5,1.2-2.5,2.5c0,1.4,1.1,2.5,2.5,2.5s2.5-1.1,2.5-2.5S133.8,81.9,132.4,81.9z"/>
	<path class="st0" d="M147.5,89.8c-1.7,0-3.2,0.6-4.4,1.7v-1.3h-3.8V108h3.8v-8.5c0-3.8,0.6-6.1,3.7-6.1c2.6,0,3,1.5,3,4.6v10h3.8
		V97.5C153.7,95.6,153.7,89.8,147.5,89.8z"/>
	<path class="st0" d="M170.4,91.9c-1.4-1.4-3.2-2.1-5.3-2.1c-4.9,0-8.6,4-8.6,9.4c0,5.3,3.7,9.3,8.5,9.3c2,0,4-0.8,5.4-2.1v0.8
		c0,4.6-1.5,6.5-4.9,6.5c-2.9,0-4.8-1.8-4.9-4.6v-0.5h-3.9v0.5c0.1,4.9,3.6,8.2,8.7,8.2c2.8,0,5.3-1.1,6.9-3.2
		c1.8-2.3,1.8-4.9,1.8-7.5V90.2h-3.8v1.7H170.4z M170.6,99c0,2.9-1.6,5.9-5.1,5.9c-3.4,0-5-3.1-5-5.9c0-2.7,1.7-5.5,5-5.5
		C169,93.4,170.6,96.2,170.6,99z"/>
	<path class="st0" d="M196.9,97.2l-0.7-0.3c-1.8-0.7-2.9-1.2-2.9-2.2c0-0.8,0.8-1.4,1.6-1.4s1.5,0.7,1.8,1.4l0.2,0.5l3.3-1.7
		l-0.2-0.4c-0.9-2-2.9-3.4-4.9-3.4c-3.1,0-5.5,2.3-5.5,5.2c0,3.2,2.5,4.3,4.6,5.1c1.9,0.8,3,1.3,3,2.6c0,1.2-0.9,2.1-2.2,2.1
		c-1.6,0-2.3-0.9-3-2.4l-0.2-0.4l-3.4,1.4l0.1,0.4c1,2.9,3.4,4.6,6.4,4.6c3.5,0,6.2-2.6,6.2-6C201.1,99.4,198.9,98.1,196.9,97.2z"/>
	<path class="st0" d="M211.9,89.8c-5.2,0-9.3,4.1-9.3,9.4c0,5.2,4.1,9.3,9.3,9.3s9.3-4.1,9.3-9.3C221.2,93.9,217.1,89.8,211.9,89.8z
		 M217.4,99.1c0,3.3-2.4,5.7-5.5,5.7s-5.5-2.5-5.5-5.7c0-3.3,2.4-5.7,5.5-5.7S217.4,95.9,217.4,99.1z"/>
	<path class="st0" d="M232,89.8c-5.2,0-9.3,4.1-9.3,9.4c0,5.2,4.1,9.3,9.3,9.3s9.3-4.1,9.3-9.3C241.3,93.9,237.2,89.8,232,89.8z
		 M237.5,99.1c0,3.3-2.4,5.7-5.5,5.7s-5.5-2.5-5.5-5.7c0-3.3,2.4-5.7,5.5-5.7S237.5,95.9,237.5,99.1z"/>
	<path class="st0" d="M252.4,89.8c-1.7,0-3.2,0.6-4.4,1.7v-1.3h-3.8V108h3.8v-8.5c0-3.8,0.6-6.1,3.7-6.1c2.6,0,3,1.5,3,4.6v10h3.8
		V97.5C258.7,95.6,258.7,89.8,252.4,89.8z"/>
</g>
</svg>
